PathFileType	4	(X/Y/Z)	/Users/niels/Desktop/University/Third Semester/Perception and Action/Exam/Gymnastics Motion Tracking/Code for Gym Tracking/Analyzed Data/Start Salto/stsalto_bad_id7_1_Sports2D/stsalto_bad_id7_1_Sports2D_px_person00.trc
DataRate	CameraRate	NumFrames	NumMarkers	Units	OrigDataRate	OrigDataStartFrame	OrigNumFrames
29.88505747126437	29.88505747126437	10	22	m	29.88505747126437	228	261
Frame#	Time	Hip			RHip			RKnee			RAnkle			RBigToe			RSmallToe			RHeel			LHip			LKnee			LAnkle			LBigToe			LSmallToe			LHeel			Neck			Head			Nose			RShoulder			RElbow			RWrist			LShoulder			LElbow			LWrist		
		X1	Y1	Z1	X2	Y2	Z2	X3	Y3	Z3	X4	Y4	Z4	X5	Y5	Z5	X6	Y6	Z6	X7	Y7	Z7	X8	Y8	Z8	X9	Y9	Z9	X10	Y10	Z10	X11	Y11	Z11	X12	Y12	Z12	X13	Y13	Z13	X14	Y14	Z14	X15	Y15	Z15	X16	Y16	Z16	X17	Y17	Z17	X18	Y18	Z18	X19	Y19	Z19	X20	Y20	Z20	X21	Y21	Z21	X22	Y22	Z22
228	7.629230769230769	1.4397369663490982	-0.6116588648926151	0.0	1.4318488700757905	-0.6139838020551466	0.0	1.5748740544889084	-0.6894742211302889	0.0	1.4630463711205868	-0.7722563387468316	0.0	1.5003163790130112	-0.8132246547474749	0.0	1.48727096344862	-0.8140171977024938	0.0	1.4422395428834307	-0.7834024884922063	0.0	1.4585242653703112	-0.6065793808262598	0.0	1.586048673439569	-0.6377532887625516	0.0	1.585364068500624	-0.7711416794353635	0.0	1.6433419007512207	-0.7936678291469919	0.0	1.6350445364316657	-0.7884394360733377	0.0	1.5741038778963032	-0.7895998435360368	0.0	1.4960926303550295	-0.44631314023519664	0.0	1.532956602876574	-0.36852036519285136	0.0	1.547849834275525	-0.4108554054503099	0.0	1.4915979029811108	-0.469465112571605	0.0	1.4637451995532953	-0.5627770319102949	0.0	1.4884806177047416	-0.6554928658362152	0.0	1.4835202864488815	-0.4617485787662978	0.0	1.4704205715068537	-0.5628848547377224	0.0	1.4858624302256471	-0.6354500693863592	0.0
229	7.662692307692307	1.4434592953432575	-0.6101405990471275	0.0	1.4353062712805282	-0.6125387642625854	0.0	1.5755967752448912	-0.6889947686611094	0.0	1.463769359674354	-0.7714979016487241	0.0	1.5003068200687242	-0.8132734861301598	0.0	1.4869234238065185	-0.8137776641087019	0.0	1.4430143439317225	-0.7824420208318684	0.0	1.4616477778457606	-0.6053686240194731	0.0	1.5890275138214245	-0.6373296169685558	0.0	1.5851492334887392	-0.7701025041644866	0.0	1.643010778908895	-0.7935613974931333	0.0	1.6348695153768535	-0.787913970633823	0.0	1.5734239795763572	-0.78891544383773	0.0	1.5025901969821467	-0.44592893803106004	0.0	1.5424102836826739	-0.3694391956930929	0.0	1.5554993604298992	-0.4121531701416077	0.0	1.4988688604348328	-0.4687415210060474	0.0	1.4756488654302584	-0.5640388625792209	0.0	1.5055729898000667	-0.65554962443185	0.0	1.4891395890539143	-0.4605118859551133	0.0	1.4811917560796175	-0.5635181854486819	0.0	1.500015845255093	-0.6366608200009288	0.0
230	7.6961538461538455	1.4467013993220441	-0.6088789967787098	0.0	1.438634340177501	-0.6114288992280831	0.0	1.57626088482293	-0.6888270129559986	0.0	1.4642011514590156	-0.7710565002375549	0.0	1.500368832645447	-0.813281077906313	0.0	1.486392987833753	-0.8136148530664615	0.0	1.4434303198576335	-0.7818501179739166	0.0	1.4639331539368117	-0.6044384151586452	0.0	1.5917016045274834	-0.6373757360481215	0.0	1.5849840283261625	-0.7696684635959217	0.0	1.6429796685000608	-0.793701040296055	0.0	1.6348543022345843	-0.7876787584754271	0.0	1.5728442244359622	-0.7886833583709669	0.0	1.508939473200427	-0.4455700744211459	0.0	1.5512846315623487	-0.37022345775218685	0.0	1.562915910818147	-0.41331517851699306	0.0	1.5059437825735038	-0.46798367245655065	0.0	1.4876930199724192	-0.5652145149814961	0.0	1.5225791937273276	-0.6551879652997749	0.0	1.4946011624708764	-0.45961163123020055	0.0	1.4918749040286425	-0.5643498285780474	0.0	1.514877017628061	-0.6370816391022202	0.0
231	7.729615384615384	1.4493294136252974	-0.607828244185779	0.0	1.441671613487344	-0.6106125236060246	0.0	1.5771660754461005	-0.6893797242757267	0.0	1.4643438373802657	-0.7709725747257496	0.0	1.50047217301692	-0.8131608899765214	0.0	1.485776648618779	-0.8134629443780473	0.0	1.4434691996335494	-0.7817047873972303	0.0	1.465675221512539	-0.6037561130009251	0.0	1.594024768286558	-0.6378378295528087	0.0	1.5849266347483328	-0.7698842056576467	0.0	1.6431683774627521	-0.7939775994183423	0.0	1.6350178400342064	-0.7877305300670121	0.0	1.5724987023078205	-0.788847382591862	0.0	1.515065386673674	-0.44520437192508583	0.0	1.5590220111467201	-0.37082443701521517	0.0	1.5698099297654904	-0.414204551764305	0.0	1.512821988240057	-0.46717197879076794	0.0	1.4995807170182078	-0.5661326636893943	0.0	1.5391932918784912	-0.6543377556570532	0.0	1.4997649614772568	-0.4591321347559653	0.0	1.501895482600351	-0.5654838489573224	0.0	1.529907369886615	-0.6365112457570993	0.0
232	7.763076923076922	1.4514730062468257	-0.6069061838573696	0.0	1.444443071451092	-0.6099954347294181	0.0	1.5784045475627477	-0.6909279858665218	0.0	1.464233243376334	-0.7712008480891697	0.0	1.5005482033520599	-0.8129003980025532	0.0	1.4851683092617742	-0.813272500590943	0.0	1.4432095448711422	-0.781973325600957	0.0	1.4673686302082638	-0.6032206815350325	0.0	1.596014184679968	-0.6387233234659964	0.0	1.5850241718987919	-0.7706933568998011	0.0	1.6435234442139772	-0.794315010977095	0.0	1.6353669588436985	-0.7880575395750045	0.0	1.5724337415711716	-0.7892949890405133	0.0	1.52107565046825	-0.4447872314623566	0.0	1.5655545291664505	-0.37119523033025753	0.0	1.5761587563668802	-0.4147952056274866	0.0	1.519663336167883	-0.46629071546402345	0.0	1.5113618157997855	-0.5666068590741693	0.0	1.5554621772589268	-0.6528723214907712	0.0	1.5046344935971652	-0.45901290900097014	0.0	1.5107849854837676	-0.5668197386247922	0.0	1.544577148262543	-0.6350196176168564	0.0
233	7.796538461538461	1.4534027610221043	-0.606006743080837	0.0	1.4471331035466535	-0.6094172238581859	0.0	1.5798402673622531	-0.6934713898157643	0.0	1.4639074841696045	-0.7716263489814581	0.0	1.5004629607860747	-0.8125903316715523	0.0	1.4845458813416843	-0.813047838237715	0.0	1.442772463303025	-0.782543188467674	0.0	1.4693345560741802	-0.6026913639708207	0.0	1.5977635320122747	-0.6400990277410488	0.0	1.5852666975431473	-0.7718857092356481	0.0	1.6440240697812583	-0.7946772568229322	0.0	1.6358553218435323	-0.7885951542029297	0.0	1.572553386170823	-0.7898988256695132	0.0	1.527119109636762	-0.4442862784296605	0.0	1.5712575054449607	-0.3712419463305033	0.0	1.5821598890956576	-0.4151340310117982	0.0	1.5266567347065543	-0.4653179417680321	0.0	1.5233119353461122	-0.5664693021098804	0.0	1.571562673701834	-0.6506298800312195	0.0	1.5092908704562709	-0.45904421595744127	0.0	1.518164353933953	-0.5679815756227666	0.0	1.5582901512997271	-0.6326446894093167	0.0
234	7.829999999999999	1.4554024942178112	-0.6050221520989565	0.0	1.4499723210703623	-0.6086793075545543	0.0	1.5812525184696355	-0.6967251193918734	0.0	1.4634135603614955	-0.7721163621749861	0.0	1.50008368009116	-0.8123554886200179	0.0	1.483853395674013	-0.8128239697289737	0.0	1.4422622955731128	-0.7832796345144103	0.0	1.4715933860336312	-0.6020255556031133	0.0	1.5995100548914012	-0.6418963240237323	0.0	1.5855873724752003	-0.7731333528928468	0.0	1.6445898751928225	-0.7950481675042878	0.0	1.636349614333733	-0.7892461228943499	0.0	1.572676511758738	-0.7905315296608245	0.0	1.5332630107159577	-0.4436664830974177	0.0	1.5766631768771322	-0.3708099702315104	0.0	1.5880607039560344	-0.4152384379640809	0.0	1.5338742678945514	-0.4642126492653783	0.0	1.535604718167579	-0.5655696503836295	0.0	1.5875412877037915	-0.6474554765496798	0.0	1.5138221561456058	-0.45892019902048453	0.0	1.5236789254815855	-0.5684318586317847	0.0	1.5702851721582378	-0.6294127099215073	0.0
235	7.863461538461538	1.457743164276306	-0.6038366345475543	0.0	1.4531886709044126	-0.6075883057512435	0.0	1.5824579121700555	-0.7002686469539411	0.0	1.4628114249320927	-0.7725763838442127	0.0	1.4993936107314367	-0.8122545194333888	0.0	1.4831967940877715	-0.8126226090090355	0.0	1.4417465874838098	-0.7840668030526537	0.0	1.4740487834680702	-0.6010851493729815	0.0	1.601674955661484	-0.6436745431390101	0.0	1.5859152721611272	-0.7741158496092765	0.0	1.6449809427318016	-0.7954331558681736	0.0	1.636615806585251	-0.7899388706546601	0.0	1.5726239200609258	-0.7910539636341295	0.0	1.5395851473532804	-0.442834354677927	0.0	1.5823008772172238	-0.36969436652958076	0.0	1.5941156215204524	-0.41499764596587735	0.0	1.5413341594474665	-0.4628991499178763	0.0	1.5482530243768282	-0.5637868141559734	0.0	1.603469555613484	-0.6432408233294693	0.0	1.5184493512666766	-0.4583256376632964	0.0	1.5272729454966092	-0.5677333384679182	0.0	1.5800600092729093	-0.6254892705973747	0.0
236	7.896923076923076	1.460712402563458	-0.6022710956167376	0.0	1.4570267413012201	-0.6059396146084909	0.0	1.5833712339265966	-0.7037238108463875	0.0	1.4621714892632658	-0.7729687970121178	0.0	1.4984827686715132	-0.8122601286866342	0.0	1.482817753025676	-0.8124334520312638	0.0	1.4412690214550439	-0.7847973649955489	0.0	1.4767044736839692	-0.5996826065697334	0.0	1.6047013083084054	-0.6447911504846052	0.0	1.5862218824330463	-0.7745848824974844	0.0	1.644885260674493	-0.7958307684011842	0.0	1.6364224558641547	-0.79060021407947	0.0	1.5722816526470587	-0.7912894304690884	0.0	1.5462745100410293	-0.44162073551707814	0.0	1.5886548989861753	-0.36770236122476746	0.0	1.6006090495179783	-0.41418565947412306	0.0	1.5491249001787648	-0.4612575410877705	0.0	1.561272764183377	-0.5610762765854803	0.0	1.619671198250044	-0.6379222041797631	0.0	1.52358501234669	-0.45699014148464173	0.0	1.5294676511057665	-0.5657219471797988	0.0	1.5877315554718525	-0.6210904423389155	0.0
237	7.9303846153846145	1.4646440643627356	-0.6000697867068452	0.0	1.4617774895134343	-0.6035087145243789	0.0	1.584071479384385	-0.7068504336354466	0.0	1.4615804118579527	-0.7732895138508741	0.0	1.4974468793412012	-0.8123284981192508	0.0	1.4828790337804638	-0.8122363205598829	0.0	1.4408592533435634	-0.7853396572971797	0.0	1.4797835681503284	-0.5975570268095753	0.0	1.608843907890885	-0.6448959248001939	0.0	1.5865376144409862	-0.7743316262536575	0.0	1.6441607995381082	-0.7961749887140732	0.0	1.6357385139954688	-0.7910740937952401	0.0	1.5716666440199636	-0.7910042974319649	0.0	1.5535940381751592	-0.43981883467378347	0.0	1.5960970614614765	-0.3647489426831008	0.0	1.6078361608158387	-0.41254608941431176	0.0	1.5574284941076397	-0.4591134119645382	0.0	1.5747870900677814	-0.5574778493101815	0.0	1.6366202198245916	-0.631389915728915	0.0	1.529681289193627	-0.45470324347025537	0.0	1.5313809509844467	-0.5624587252304305	0.0	1.5939720260226071	-0.6162383177824027	0.0
